<svg xmlns="http://www.w3.org/2000/svg" fill="#fff" version="1.0" viewBox="0 0 1280 1136">
  <path d="M619.6 1.1c-34.7 4.5-68.8 25.8-90.6 56.7-5.2 7.4-233 397.1-454.6 777.5C11.6 943 8.9 948.1 3.3 968.8 1.1 977.2.7 980.6.6 994c-.1 16.8.7 21.8 5.6 37 17.7 54.5 61.8 95.4 111.8 103.5 8.5 1.3 66.4 1.5 527 1.5 369.5 0 520.1-.3 526.5-1.1 12.4-1.5 26.1-5.2 38.1-10.3 52.5-22.2 80.1-77.5 67-134.6-3.8-16.7-8-26.7-19.8-47.3-6.1-10.5-41.3-71.6-78.3-135.7C894.3 314.5 764.9 91.8 749.7 69c-24.9-37.2-58.6-61.2-94.6-67.4-10.1-1.7-24.3-1.9-35.5-.5z"/>
</svg>