<svg xmlns="http://www.w3.org/2000/svg" fill="none" viewBox="0 0 48 48">
  <path fill="#000" fill-rule="evenodd" d="M40.667 7.316A23.323 23.323 0 0 0 24.099.48C11.189.48.682 10.936.676 23.79a23.165 23.165 0 0 0 3.127 11.655L.48 47.52l12.416-3.241a23.481 23.481 0 0 0 11.193 2.835h.01c12.907 0 23.415-10.457 23.42-23.31a23.12 23.12 0 0 0-6.852-16.488ZM24.099 43.179h-.009a19.503 19.503 0 0 1-9.908-2.7l-.71-.42-7.368 1.923 1.966-7.15-.463-.734A19.264 19.264 0 0 1 4.631 23.79c0-10.681 8.737-19.372 19.475-19.372a19.425 19.425 0 0 1 19.46 19.387c-.004 10.682-8.737 19.374-19.467 19.374Zm10.677-14.51c-.585-.291-3.465-1.7-3.998-1.895-.534-.194-.927-.292-1.317.292-.39.584-1.512 1.89-1.853 2.284-.342.394-.683.437-1.268.145-.584-.292-2.471-.906-4.707-2.89-1.74-1.545-2.913-3.452-3.255-4.035-.341-.583-.037-.899.256-1.189.264-.261.585-.68.878-1.02.293-.34.39-.584.585-.972.194-.389.098-.73-.048-1.02-.146-.29-1.317-3.158-1.804-4.325-.476-1.136-.958-.982-1.317-1a23.768 23.768 0 0 0-1.122-.02 2.157 2.157 0 0 0-1.56.728c-.537.584-2.05 1.995-2.05 4.86s2.101 5.636 2.39 6.024c.29.389 4.127 6.272 9.998 8.795 1.09.467 2.204.876 3.337 1.227 1.401.443 2.677.38 3.685.23 1.125-.166 3.465-1.409 3.951-2.77.486-1.36.487-2.526.342-2.768-.146-.243-.537-.39-1.123-.68Z" clip-rule="evenodd"/>
</svg>